<?xml version="1.0" encoding="UTF-8"?>
<svg viewBox="0 0 233 191" version="1.1" xmlns="http://www.w3.org/2000/svg" xmlns:xlink="http://www.w3.org/1999/xlink">
    <title>Good Shot Logo</title>
    <defs>
        <rect id="path-1" x="0" y="0" width="37" height="21"></rect>
    </defs>
    <g id="Page-1" stroke="none" stroke-width="1" fill="none" fill-rule="evenodd">
        <g id="Group-3">
            <g id="o-copy" transform="translate(118.000000, 168.000000)">
                <mask id="mask-2" fill="white">
                    <use xlink:href="#path-1"></use>
                </mask>
                <g id="Mask" fill-rule="nonzero"></g>
                <path d="M33.3259999,20.5930846 C33.3259999,23.2970981 32.7193393,25.7237405 31.5059999,27.8730846 C30.2926605,30.0224287 28.6373438,31.7037452 26.5399999,32.9170846 C24.4426561,34.130424 22.1286793,34.7370846 19.5979999,34.7370846 C17.0673206,34.7370846 14.7533438,34.130424 12.6559999,32.9170846 C10.5586561,31.7037452 8.90333933,30.0224287 7.68999993,27.8730846 C6.47666053,25.7237405 5.86999993,23.2970981 5.86999993,20.5930846 C5.86999993,17.8890711 6.47666053,15.4450955 7.68999993,13.2610846 C8.90333933,11.0770737 10.5586561,9.37842401 12.6559999,8.16508461 C14.7533438,6.95174521 17.0673206,6.34508461 19.5979999,6.34508461 C22.1286793,6.34508461 24.4426561,6.95174521 26.5399999,8.16508461 C28.6373438,9.37842401 30.2926605,11.0770737 31.5059999,13.2610846 C32.7193393,15.4450955 33.3259999,17.8890711 33.3259999,20.5930846 Z" fill="#EE00E2" mask="url(#mask-2)"></path>
            </g>
            <path d="M57.5,38.9170846 C58.366671,38.9170846 59.0833305,39.2004151 59.65,39.7670846 C60.2166695,40.3337541 60.5,41.0504136 60.5,41.9170846 L60.5,66.0170846 C60.5,67.1504236 60.000005,68.0504146 59,68.7170846 C55.999985,70.7837616 52.666685,72.3837456 49,73.5170846 C45.333315,74.6504236 41.600019,75.2170846 37.8,75.2170846 C30.999966,75.2170846 24.866694,73.6504336 19.4,70.5170846 C13.933306,67.3837356 9.633349,63.0837786 6.5,57.6170846 C3.366651,52.1503906 1.8,46.0171186 1.8,39.2170846 C1.8,32.4170506 3.366651,26.2837786 6.5,20.8170846 C9.633349,15.3503906 13.933306,11.0504336 19.4,7.91708461 C24.866694,4.78373561 30.999966,3.21708461 37.8,3.21708461 C41.333351,3.21708461 44.7499835,3.65041361 48.05,4.51708461 C51.3500165,5.38375561 54.299987,6.61707661 56.9,8.21708461 C57.833338,8.81708761 58.3,9.65041261 58.3,10.7170846 C58.3,11.5837556 58.0166695,12.3170816 57.45,12.9170846 C56.8833305,13.5170876 56.233337,13.8170846 55.5,13.8170846 C54.83333,13.8170846 54.233336,13.6504196 53.7,13.3170846 C48.699975,10.5837376 43.400028,9.21708461 37.8,9.21708461 C32.133305,9.21708461 27.0500225,10.5170716 22.55,13.1170846 C18.0499775,15.7170976 14.533346,19.3003951 12,23.8670846 C9.466654,28.4337741 8.2,33.5503896 8.2,39.2170846 C8.2,44.8837796 9.466654,50.0003951 12,54.5670846 C14.533346,59.1337741 18.0499775,62.7170716 22.55,65.3170846 C27.0500225,67.9170976 32.133305,69.2170846 37.8,69.2170846 C40.666681,69.2170846 43.5499855,68.8170886 46.45,68.0170846 C49.3500145,67.2170806 51.933322,66.1170916 54.2,64.7170846 L54.2,44.9170846 L38.4,44.9170846 C37.533329,44.9170846 36.800003,44.6337541 36.2,44.0670846 C35.599997,43.5004151 35.3,42.7837556 35.3,41.9170846 C35.3,41.0504136 35.599997,40.3337541 36.2,39.7670846 C36.800003,39.2004151 37.533329,38.9170846 38.4,38.9170846 L57.5,38.9170846 Z M119.3,48.6170846 C119.3,53.6171096 118.200011,58.1503976 116,62.2170846 C113.799989,66.2837716 110.766686,69.4670731 106.9,71.7670846 C103.033314,74.0670961 98.733357,75.2170846 94,75.2170846 C89.266643,75.2170846 84.966686,74.0670961 81.1,71.7670846 C77.233314,69.4670731 74.200011,66.2837716 72,62.2170846 C69.799989,58.1503976 68.7,53.6171096 68.7,48.6170846 C68.7,43.6170596 69.799989,39.0837716 72,35.0170846 C74.200011,30.9503976 77.233314,27.7504296 81.1,25.4170846 C84.966686,23.0837396 89.266643,21.9170846 94,21.9170846 C98.733357,21.9170846 103.033314,23.0837396 106.9,25.4170846 C110.766686,27.7504296 113.799989,30.9503976 116,35.0170846 C118.200011,39.0837716 119.3,43.6170596 119.3,48.6170846 Z M113.3,48.6170846 C113.3,44.6170646 112.466675,41.0171006 110.8,37.8170846 C109.133325,34.6170686 106.816681,32.1004271 103.85,30.2670846 C100.883318,28.4337421 97.600018,27.5170846 94,27.5170846 C90.399982,27.5170846 87.133348,28.4337421 84.2,30.2670846 C81.266652,32.1004271 78.9500085,34.6170686 77.25,37.8170846 C75.5499915,41.0171006 74.7,44.6170646 74.7,48.6170846 C74.7,52.5504376 75.5499915,56.1170686 77.25,59.3170846 C78.9500085,62.5171006 81.266652,65.0337421 84.2,66.8670846 C87.133348,68.7004271 90.399982,69.6170846 94,69.6170846 C97.600018,69.6170846 100.883318,68.7170936 103.85,66.9170846 C106.816681,65.1170756 109.133325,62.6171006 110.8,59.4170846 C112.466675,56.2170686 113.3,52.6171046 113.3,48.6170846 Z M177.5,48.6170846 C177.5,53.6171096 176.400011,58.1503976 174.2,62.2170846 C171.999989,66.2837716 168.966686,69.4670731 165.1,71.7670846 C161.233314,74.0670961 156.933357,75.2170846 152.2,75.2170846 C147.466643,75.2170846 143.166686,74.0670961 139.3,71.7670846 C135.433314,69.4670731 132.400011,66.2837716 130.2,62.2170846 C127.999989,58.1503976 126.9,53.6171096 126.9,48.6170846 C126.9,43.6170596 127.999989,39.0837716 130.2,35.0170846 C132.400011,30.9503976 135.433314,27.7504296 139.3,25.4170846 C143.166686,23.0837396 147.466643,21.9170846 152.2,21.9170846 C156.933357,21.9170846 161.233314,23.0837396 165.1,25.4170846 C168.966686,27.7504296 171.999989,30.9503976 174.2,35.0170846 C176.400011,39.0837716 177.5,43.6170596 177.5,48.6170846 Z M171.5,48.6170846 C171.5,44.6170646 170.666675,41.0171006 169,37.8170846 C167.333325,34.6170686 165.016681,32.1004271 162.05,30.2670846 C159.083318,28.4337421 155.800018,27.5170846 152.2,27.5170846 C148.599982,27.5170846 145.333348,28.4337421 142.4,30.2670846 C139.466652,32.1004271 137.150008,34.6170686 135.45,37.8170846 C133.749991,41.0171006 132.9,44.6170646 132.9,48.6170846 C132.9,52.5504376 133.749991,56.1170686 135.45,59.3170846 C137.150008,62.5171006 139.466652,65.0337421 142.4,66.8670846 C145.333348,68.7004271 148.599982,69.6170846 152.2,69.6170846 C155.800018,69.6170846 159.083318,68.7170936 162.05,66.9170846 C165.016681,65.1170756 167.333325,62.6171006 169,59.4170846 C170.666675,56.2170686 171.5,52.6171046 171.5,48.6170846 Z M229.3,0.217084611 C230.166671,0.217084611 230.88333,0.500415111 231.45,1.06708461 C232.016669,1.63375411 232.3,2.35041361 232.3,3.21708461 L232.3,71.2170846 C232.3,72.0837556 232.016669,72.8004151 231.45,73.3670846 C230.88333,73.9337541 230.166671,74.2170846 229.3,74.2170846 C228.433329,74.2170846 227.716669,73.9337541 227.15,73.3670846 C226.58333,72.8004151 226.3,72.0837556 226.3,71.2170846 L226.3,64.2170846 C224.633325,67.2837666 222.150016,69.8837406 218.85,72.0170846 C215.549983,74.1504286 211.90002,75.2170846 207.9,75.2170846 C203.499978,75.2170846 199.516684,74.0670961 195.95,71.7670846 C192.383315,69.4670731 189.566677,66.2837716 187.5,62.2170846 C185.433323,58.1503976 184.4,53.5837766 184.4,48.5170846 C184.4,43.5170596 185.433323,38.9837716 187.5,34.9170846 C189.566677,30.8503976 192.383315,27.6670961 195.95,25.3670846 C199.516684,23.0670731 203.466645,21.9170846 207.8,21.9170846 C211.733353,21.9170846 215.36665,22.9004081 218.7,24.8670846 C222.03335,26.8337611 224.566658,29.3837356 226.3,32.5170846 L226.3,3.21708461 C226.3,2.35041361 226.58333,1.63375411 227.15,1.06708461 C227.716669,0.500415111 228.433329,0.217084611 229.3,0.217084611 Z M208.5,69.6170846 C211.966684,69.6170846 215.083319,68.7170936 217.85,66.9170846 C220.61668,65.1170756 222.783325,62.6004341 224.35,59.3670846 C225.916674,56.1337351 226.7,52.5171046 226.7,48.5170846 C226.7,44.5837316 225.916674,41.0171006 224.35,37.8170846 C222.783325,34.6170686 220.61668,32.1004271 217.85,30.2670846 C215.083319,28.4337421 211.966684,27.5170846 208.5,27.5170846 C205.033316,27.5170846 201.91668,28.4337421 199.15,30.2670846 C196.383319,32.1004271 194.216674,34.6170686 192.65,37.8170846 C191.083325,41.0171006 190.3,44.5837316 190.3,48.5170846 C190.3,52.5171046 191.083325,56.1170686 192.65,59.3170846 C194.216674,62.5171006 196.383319,65.0337421 199.15,66.8670846 C201.91668,68.7004271 205.033316,69.6170846 208.5,69.6170846 Z M25.3,175.217085 C20.499976,175.217085 16.2500185,174.417093 12.55,172.817085 C8.8499815,171.217077 5.266684,168.717102 1.8,165.317085 C0.999996,164.650415 0.6,163.850423 0.6,162.917085 C0.6,162.117081 0.9166635,161.383755 1.55,160.717085 C2.1833365,160.050415 2.899996,159.717085 3.7,159.717085 C4.500004,159.717085 5.23333,160.050415 5.9,160.717085 C11.100026,166.450447 17.599961,169.317085 25.4,169.317085 C30.200024,169.317085 34.1833175,168.183763 37.35,165.917085 C40.5166825,163.650407 42.1,160.68377 42.1,157.017085 C42.1,154.150404 41.3166745,151.767094 39.75,149.867085 C38.1833255,147.967075 36.133346,146.417091 33.6,145.217085 C31.066654,144.017079 27.833353,142.783758 23.9,141.517085 C19.633312,140.250412 16.0500145,138.850426 13.15,137.317085 C10.2499855,135.783744 7.900009,133.733764 6.1,131.167085 C4.299991,128.600405 3.4,125.350438 3.4,121.417085 C3.4,117.883734 4.3499905,114.750432 6.25,112.017085 C8.1500095,109.283738 10.8166495,107.133759 14.25,105.567085 C17.6833505,104.00041 21.633311,103.217085 26.1,103.217085 C30.166687,103.217085 33.9833155,103.900411 37.55,105.267085 C41.1166845,106.633758 43.966656,108.583739 46.1,111.117085 C47.100005,112.250424 47.6,113.217081 47.6,114.017085 C47.6,114.750422 47.26667,115.433748 46.6,116.067085 C45.93333,116.700421 45.200004,117.017085 44.4,117.017085 C43.73333,117.017085 43.166669,116.783754 42.7,116.317085 C40.899991,114.183741 38.500015,112.450425 35.5,111.117085 C32.499985,109.783745 29.366683,109.117085 26.1,109.117085 C21.233309,109.117085 17.266682,110.200407 14.2,112.367085 C11.133318,114.533762 9.6,117.483733 9.6,121.217085 C9.6,125.083771 11.066652,128.050408 14,130.117085 C16.933348,132.183762 21.133306,134.083743 26.6,135.817085 C31.333357,137.217092 35.199985,138.650411 38.2,140.117085 C41.200015,141.583759 43.6499905,143.667071 45.55,146.367085 C47.4500095,149.067098 48.4,152.617063 48.4,157.017085 C48.4,160.417102 47.4166765,163.500404 45.45,166.267085 C43.4833235,169.033765 40.7500175,171.217077 37.25,172.817085 C33.7499825,174.417093 29.766689,175.217085 25.3,175.217085 Z M84.4,122.717085 C90.40003,122.717085 94.866652,124.600399 97.8,128.367085 C100.733348,132.13377 102.2,136.983722 102.2,142.917085 L102.2,171.217085 C102.2,172.083756 101.916669,172.800415 101.35,173.367085 C100.78333,173.933754 100.066671,174.217085 99.2,174.217085 C98.333329,174.217085 97.6166695,173.933754 97.05,173.367085 C96.4833305,172.800415 96.2,172.083756 96.2,171.217085 L96.2,142.917085 C96.2,138.58373 95.166677,135.067098 93.1,132.367085 C91.033323,129.667071 87.800022,128.317085 83.4,128.317085 C80.599986,128.317085 77.9500125,128.983745 75.45,130.317085 C72.9499875,131.650425 70.933341,133.43374 69.4,135.667085 C67.866659,137.900429 67.1,140.317072 67.1,142.917085 L67.1,171.217085 C67.1,172.083756 66.8166695,172.800415 66.25,173.367085 C65.6833305,173.933754 64.966671,174.217085 64.1,174.217085 C63.233329,174.217085 62.5166695,173.933754 61.95,173.367085 C61.3833305,172.800415 61.1,172.083756 61.1,171.217085 L61.1,103.217085 C61.1,102.350414 61.3833305,101.633754 61.95,101.067085 C62.5166695,100.500415 63.233329,100.217085 64.1,100.217085 C64.966671,100.217085 65.6833305,100.500415 66.25,101.067085 C66.8166695,101.633754 67.1,102.350414 67.1,103.217085 L67.1,132.517085 C68.900009,129.650404 71.399984,127.300427 74.6,125.467085 C77.800016,123.633742 81.06665,122.717085 84.4,122.717085 Z M112.8,190.217085 C111.999996,190.217085 111.333336,189.967087 110.8,189.467085 C110.266664,188.967082 110,188.317089 110,187.517085 C110,186.717081 110.249997,186.083754 110.75,185.617085 C111.250002,185.150416 111.933329,184.917085 112.8,184.917085 L162.3,184.917085 C163.100004,184.917085 163.766664,185.167082 164.3,185.667085 C164.833336,186.167087 165.1,186.817081 165.1,187.617085 C165.1,188.350422 164.833336,188.967082 164.3,189.467085 C163.766664,189.967087 163.100004,190.217085 162.3,190.217085 L112.8,190.217085 Z M184,128.917085 L184,162.417085 C184,164.950431 184.466662,166.66708 185.4,167.567085 C186.333338,168.467089 187.566659,168.917085 189.1,168.917085 C189.500002,168.917085 189.999997,168.833752 190.6,168.667085 C191.200003,168.500417 191.666665,168.417085 192,168.417085 C192.600003,168.417085 193.116664,168.667082 193.55,169.167085 C193.983335,169.667087 194.2,170.250415 194.2,170.917085 C194.2,171.850423 193.666672,172.633748 192.6,173.267085 C191.533328,173.900421 190.266674,174.217085 188.8,174.217085 C186.999991,174.217085 185.400007,174.05042 184,173.717085 C182.599993,173.38375 181.250006,172.38376 179.95,170.717085 C178.649993,169.05041 178,166.38377 178,162.717085 L178,128.917085 L170.7,128.917085 C169.899996,128.917085 169.216669,128.650421 168.65,128.117085 C168.08333,127.583749 167.8,126.917089 167.8,126.117085 C167.8,125.317081 168.08333,124.650421 168.65,124.117085 C169.216669,123.583749 169.899996,123.317085 170.7,123.317085 L178,123.317085 L178,112.217085 C178,111.350414 178.28333,110.633754 178.85,110.067085 C179.416669,109.500415 180.133329,109.217085 181,109.217085 C181.866671,109.217085 182.58333,109.500415 183.15,110.067085 C183.716669,110.633754 184,111.350414 184,112.217085 L184,123.317085 L194,123.317085 C194.733337,123.317085 195.38333,123.617082 195.95,124.217085 C196.516669,124.817088 196.8,125.483748 196.8,126.217085 C196.8,127.017089 196.533336,127.667082 196,128.167085 C195.466664,128.667087 194.800004,128.917085 194,128.917085 L184,128.917085 Z" id="Good-Sh_t" fill="#000000"></path>
        </g>
    </g>
</svg>